solid OpenSCAD_Model
  facet normal -0.857493 0.514496 0
    outer loop
      vertex 0.003 0.018 0.5
      vertex 0.006 0.023 0.5
      vertex 0.003 0.018 -0.5
    endloop
  endfacet
  facet normal -0.857493 0.514496 0
    outer loop
      vertex 0.003 0.018 -0.5
      vertex 0.006 0.023 0.5
      vertex 0.006 0.023 -0.5
    endloop
  endfacet
  facet normal -0.857493 0.514496 0
    outer loop
      vertex 0 0.013 0.5
      vertex 0.003 0.018 0.5
      vertex 0 0.013 -0.5
    endloop
  endfacet
  facet normal -0.857493 0.514496 0
    outer loop
      vertex 0 0.013 -0.5
      vertex 0.003 0.018 0.5
      vertex 0.003 0.018 -0.5
    endloop
  endfacet
  facet normal 0 0 -1
    outer loop
      vertex -0.001 0.008 -0.5
      vertex 0 0.013 -0.5
      vertex -0.001 0.004 -0.5
    endloop
  endfacet
  facet normal 0 0 -1
    outer loop
      vertex -0.001 0.004 -0.5
      vertex 0 0.013 -0.5
      vertex 0.003 0.018 -0.5
    endloop
  endfacet
  facet normal 0 0 -1
    outer loop
      vertex -0.001 0.004 -0.5
      vertex 0.003 0.018 -0.5
      vertex 0.006 0.023 -0.5
    endloop
  endfacet
  facet normal 0 0 -1
    outer loop
      vertex -0.001 0.004 -0.5
      vertex 0.006 0.023 -0.5
      vertex 0.01 0.028 -0.5
    endloop
  endfacet
  facet normal 0 0 -1
    outer loop
      vertex -0.001 0.004 -0.5
      vertex 0.01 0.028 -0.5
      vertex 0.016 0.034 -0.5
    endloop
  endfacet
  facet normal 0 0 -1
    outer loop
      vertex -0.001 0.004 -0.5
      vertex 0.016 0.034 -0.5
      vertex 0.022 0.04 -0.5
    endloop
  endfacet
  facet normal 0 0 -1
    outer loop
      vertex -0.001 0.004 -0.5
      vertex 0.022 0.04 -0.5
      vertex 0.03 0.046 -0.5
    endloop
  endfacet
  facet normal 0 0 -1
    outer loop
      vertex -0.001 0.004 -0.5
      vertex 0.03 0.046 -0.5
      vertex 0.039 0.053 -0.5
    endloop
  endfacet
  facet normal 0 0 -1
    outer loop
      vertex -0.001 0.004 -0.5
      vertex 0.039 0.053 -0.5
      vertex 0.049 0.059 -0.5
    endloop
  endfacet
  facet normal 0 0 -1
    outer loop
      vertex -0.001 0.004 -0.5
      vertex 0.049 0.059 -0.5
      vertex 0.06 0.066 -0.5
    endloop
  endfacet
  facet normal 0 0 -1
    outer loop
      vertex -0.001 0.004 -0.5
      vertex 0.06 0.066 -0.5
      vertex 0.072 0.073 -0.5
    endloop
  endfacet
  facet normal 0 0 -1
    outer loop
      vertex -0.001 0.004 -0.5
      vertex 0.072 0.073 -0.5
      vertex 0.085 0.079 -0.5
    endloop
  endfacet
  facet normal 0 0 -1
    outer loop
      vertex -0.001 0.004 -0.5
      vertex 0.085 0.079 -0.5
      vertex 0.1 0.086 -0.5
    endloop
  endfacet
  facet normal 0 0 -1
    outer loop
      vertex -0.001 0.004 -0.5
      vertex 0.1 0.086 -0.5
      vertex 0.115 0.092 -0.5
    endloop
  endfacet
  facet normal 0 0 -1
    outer loop
      vertex -0.001 0.004 -0.5
      vertex 0.115 0.092 -0.5
      vertex 0.131 0.099 -0.5
    endloop
  endfacet
  facet normal 0 0 -1
    outer loop
      vertex -0.001 0.004 -0.5
      vertex 0.131 0.099 -0.5
      vertex 0.149 0.105 -0.5
    endloop
  endfacet
  facet normal 0 0 -1
    outer loop
      vertex -0.001 0.004 -0.5
      vertex 0.149 0.105 -0.5
      vertex 0.167 0.11 -0.5
    endloop
  endfacet
  facet normal 0 0 -1
    outer loop
      vertex -0.001 0.004 -0.5
      vertex 0.167 0.11 -0.5
      vertex 0.187 0.116 -0.5
    endloop
  endfacet
  facet normal 0 0 -1
    outer loop
      vertex -0.001 0.004 -0.5
      vertex 0.187 0.116 -0.5
      vertex 0.207 0.121 -0.5
    endloop
  endfacet
  facet normal 0 0 -1
    outer loop
      vertex -0.001 0.004 -0.5
      vertex 0.207 0.121 -0.5
      vertex 0.251 0.129 -0.5
    endloop
  endfacet
  facet normal 0 0 -1
    outer loop
      vertex -0.001 0.004 -0.5
      vertex 0.251 0.129 -0.5
      vertex 0.274 0.132 -0.5
    endloop
  endfacet
  facet normal 0 0 -1
    outer loop
      vertex -0.001 0.004 -0.5
      vertex 0.274 0.132 -0.5
      vertex 0.298 0.135 -0.5
    endloop
  endfacet
  facet normal 0 0 -1
    outer loop
      vertex -0.001 0.004 -0.5
      vertex 0.298 0.135 -0.5
      vertex 0.323 0.137 -0.5
    endloop
  endfacet
  facet normal 0 0 -1
    outer loop
      vertex -0.001 0.004 -0.5
      vertex 0.323 0.137 -0.5
      vertex 0.348 0.138 -0.5
    endloop
  endfacet
  facet normal 0 0 -1
    outer loop
      vertex -0.001 0.004 -0.5
      vertex 0.348 0.138 -0.5
      vertex 0.374 0.139 -0.5
    endloop
  endfacet
  facet normal 0 0 -1
    outer loop
      vertex -0.001 0.004 -0.5
      vertex 0.374 0.139 -0.5
      vertex 0.401 0.138 -0.5
    endloop
  endfacet
  facet normal 0 0 -1
    outer loop
      vertex -0.001 0.004 -0.5
      vertex 0.401 0.138 -0.5
      vertex 0.428 0.137 -0.5
    endloop
  endfacet
  facet normal 0 0 -1
    outer loop
      vertex -0.001 0.004 -0.5
      vertex 0.428 0.137 -0.5
      vertex 0.455 0.135 -0.5
    endloop
  endfacet
  facet normal 0 0 -1
    outer loop
      vertex -0.001 0.004 -0.5
      vertex 0.455 0.135 -0.5
      vertex 0.483 0.133 -0.5
    endloop
  endfacet
  facet normal 0 0 -1
    outer loop
      vertex -0.001 0.004 -0.5
      vertex 0.483 0.133 -0.5
      vertex 0.512 0.13 -0.5
    endloop
  endfacet
  facet normal 0 0 -1
    outer loop
      vertex -0.001 0.004 -0.5
      vertex 0.512 0.13 -0.5
      vertex 0.54 0.126 -0.5
    endloop
  endfacet
  facet normal 0 0 -1
    outer loop
      vertex -0.001 0.004 -0.5
      vertex 0.54 0.126 -0.5
      vertex 0.569 0.122 -0.5
    endloop
  endfacet
  facet normal 0 0 -1
    outer loop
      vertex -0.001 0.004 -0.5
      vertex 0.569 0.122 -0.5
      vertex 0.629 0.112 -0.5
    endloop
  endfacet
  facet normal 0 0 -1
    outer loop
      vertex -0.001 0.004 -0.5
      vertex 0.629 0.112 -0.5
      vertex 0.659 0.106 -0.5
    endloop
  endfacet
  facet normal 0 0 -1
    outer loop
      vertex -0.001 0.004 -0.5
      vertex 0.659 0.106 -0.5
      vertex 0.689 0.1 -0.5
    endloop
  endfacet
  facet normal 0 0 -1
    outer loop
      vertex -0.001 0.004 -0.5
      vertex 0.689 0.1 -0.5
      vertex 0.72 0.093 -0.5
    endloop
  endfacet
  facet normal 0 0 -1
    outer loop
      vertex -0.001 0.004 -0.5
      vertex 0.72 0.093 -0.5
      vertex 0.751 0.085 -0.5
    endloop
  endfacet
  facet normal 0 0 -1
    outer loop
      vertex -0.001 0.004 -0.5
      vertex 0.751 0.085 -0.5
      vertex 0.782 0.077 -0.5
    endloop
  endfacet
  facet normal 0 0 -1
    outer loop
      vertex -0.001 0.004 -0.5
      vertex 0.782 0.077 -0.5
      vertex 0.813 0.068 -0.5
    endloop
  endfacet
  facet normal 0 0 -1
    outer loop
      vertex -0.001 0.004 -0.5
      vertex 0.813 0.068 -0.5
      vertex 0.844 0.058 -0.5
    endloop
  endfacet
  facet normal 0 0 -1
    outer loop
      vertex -0.001 0.004 -0.5
      vertex 0.844 0.058 -0.5
      vertex 0.876 0.048 -0.5
    endloop
  endfacet
  facet normal 0 0 -1
    outer loop
      vertex 0.592 0.026 -0.5
      vertex 0.876 0.048 -0.5
      vertex 0.907 0.037 -0.5
    endloop
  endfacet
  facet normal 0 0 -1
    outer loop
      vertex 0.742 0.022 -0.5
      vertex 0.907 0.037 -0.5
      vertex 0.938 0.026 -0.5
    endloop
  endfacet
  facet normal 0 0 -1
    outer loop
      vertex 0.869 0.013 -0.5
      vertex 0.938 0.026 -0.5
      vertex 0.969 0.014 -0.5
    endloop
  endfacet
  facet normal 0 0 -1
    outer loop
      vertex 0.967 0.003 -0.5
      vertex 0.969 0.014 -0.5
      vertex 1 0.001 -0.5
    endloop
  endfacet
  facet normal 0 0 -1
    outer loop
      vertex 0.21 0.004 -0.5
      vertex -0.001 0.004 -0.5
      vertex 0.229 0.006 -0.5
    endloop
  endfacet
  facet normal 0 0 -1
    outer loop
      vertex 0.934 0.007 -0.5
      vertex 0.969 0.014 -0.5
      vertex 0.967 0.003 -0.5
    endloop
  endfacet
  facet normal 0 0 -1
    outer loop
      vertex 0.869 0.013 -0.5
      vertex 0.969 0.014 -0.5
      vertex 0.901 0.01 -0.5
    endloop
  endfacet
  facet normal 0 0 -1
    outer loop
      vertex 0.901 0.01 -0.5
      vertex 0.969 0.014 -0.5
      vertex 0.934 0.007 -0.5
    endloop
  endfacet
  facet normal 0 0 -1
    outer loop
      vertex 0.836 0.016 -0.5
      vertex 0.938 0.026 -0.5
      vertex 0.869 0.013 -0.5
    endloop
  endfacet
  facet normal 0 0 -1
    outer loop
      vertex 0.742 0.022 -0.5
      vertex 0.938 0.026 -0.5
      vertex 0.804 0.018 -0.5
    endloop
  endfacet
  facet normal 0 0 -1
    outer loop
      vertex 0.804 0.018 -0.5
      vertex 0.938 0.026 -0.5
      vertex 0.836 0.016 -0.5
    endloop
  endfacet
  facet normal 0 0 -1
    outer loop
      vertex 0.68 0.024 -0.5
      vertex 0.907 0.037 -0.5
      vertex 0.742 0.022 -0.5
    endloop
  endfacet
  facet normal 0 0 -1
    outer loop
      vertex 0.592 0.026 -0.5
      vertex 0.907 0.037 -0.5
      vertex 0.621 0.025 -0.5
    endloop
  endfacet
  facet normal 0 0 -1
    outer loop
      vertex 0.65 0.025 -0.5
      vertex 0.907 0.037 -0.5
      vertex 0.68 0.024 -0.5
    endloop
  endfacet
  facet normal 0 0 -1
    outer loop
      vertex 0.621 0.025 -0.5
      vertex 0.907 0.037 -0.5
      vertex 0.65 0.025 -0.5
    endloop
  endfacet
  facet normal 0 0 -1
    outer loop
      vertex 0.563 0.026 -0.5
      vertex 0.876 0.048 -0.5
      vertex 0.592 0.026 -0.5
    endloop
  endfacet
  facet normal 0 0 -1
    outer loop
      vertex 0.355 0.019 -0.5
      vertex -0.001 0.004 -0.5
      vertex 0.379 0.021 -0.5
    endloop
  endfacet
  facet normal 0 0 -1
    outer loop
      vertex 0.535 0.025 -0.5
      vertex 0.876 0.048 -0.5
      vertex 0.563 0.026 -0.5
    endloop
  endfacet
  facet normal 0 0 -1
    outer loop
      vertex 0.507 0.025 -0.5
      vertex 0.876 0.048 -0.5
      vertex 0.535 0.025 -0.5
    endloop
  endfacet
  facet normal 0 0 -1
    outer loop
      vertex 0.48 0.024 -0.5
      vertex 0.876 0.048 -0.5
      vertex 0.507 0.025 -0.5
    endloop
  endfacet
  facet normal 0 0 -1
    outer loop
      vertex 0.453 0.024 -0.5
      vertex 0.876 0.048 -0.5
      vertex 0.48 0.024 -0.5
    endloop
  endfacet
  facet normal 0 0 -1
    outer loop
      vertex 0.428 0.023 -0.5
      vertex 0.876 0.048 -0.5
      vertex 0.453 0.024 -0.5
    endloop
  endfacet
  facet normal 0 0 -1
    outer loop
      vertex 0.403 0.022 -0.5
      vertex 0.876 0.048 -0.5
      vertex 0.428 0.023 -0.5
    endloop
  endfacet
  facet normal 0 0 -1
    outer loop
      vertex 0.379 0.021 -0.5
      vertex 0.876 0.048 -0.5
      vertex 0.403 0.022 -0.5
    endloop
  endfacet
  facet normal 0 0 -1
    outer loop
      vertex -0.001 0.004 -0.5
      vertex 0.876 0.048 -0.5
      vertex 0.379 0.021 -0.5
    endloop
  endfacet
  facet normal 0 0 -1
    outer loop
      vertex 0.311 0.016 -0.5
      vertex -0.001 0.004 -0.5
      vertex 0.333 0.018 -0.5
    endloop
  endfacet
  facet normal 0 0 -1
    outer loop
      vertex -0.001 0.004 -0.5
      vertex 0.355 0.019 -0.5
      vertex 0.333 0.018 -0.5
    endloop
  endfacet
  facet normal 0 0 -1
    outer loop
      vertex 0.289 0.014 -0.5
      vertex -0.001 0.004 -0.5
      vertex 0.311 0.016 -0.5
    endloop
  endfacet
  facet normal 0 0 -1
    outer loop
      vertex 0.249 0.009 -0.5
      vertex -0.001 0.004 -0.5
      vertex 0.269 0.011 -0.5
    endloop
  endfacet
  facet normal 0 0 -1
    outer loop
      vertex 0.269 0.011 -0.5
      vertex -0.001 0.004 -0.5
      vertex 0.289 0.014 -0.5
    endloop
  endfacet
  facet normal 0 0 -1
    outer loop
      vertex 0.229 0.006 -0.5
      vertex -0.001 0.004 -0.5
      vertex 0.249 0.009 -0.5
    endloop
  endfacet
  facet normal 0 0 -1
    outer loop
      vertex 0.192 0.001 -0.5
      vertex -0.001 0.004 -0.5
      vertex 0.21 0.004 -0.5
    endloop
  endfacet
  facet normal 0 0 -1
    outer loop
      vertex -0.001 0.004 -0.5
      vertex 0.192 0.001 -0.5
      vertex 0.175 -0.001 -0.5
    endloop
  endfacet
  facet normal 0 0 -1
    outer loop
      vertex 0.175 -0.001 -0.5
      vertex 0.158 -0.004 -0.5
      vertex -0.001 0.004 -0.5
    endloop
  endfacet
  facet normal 0 0 -1
    outer loop
      vertex -0.001 0.004 -0.5
      vertex 0.158 -0.004 -0.5
      vertex 0.142 -0.006 -0.5
    endloop
  endfacet
  facet normal 0 0 -1
    outer loop
      vertex 0.142 -0.006 -0.5
      vertex 0.127 -0.008 -0.5
      vertex -0.001 0.004 -0.5
    endloop
  endfacet
  facet normal 0 0 -1
    outer loop
      vertex 0.127 -0.008 -0.5
      vertex 0.099 -0.012 -0.5
      vertex -0.001 0.004 -0.5
    endloop
  endfacet
  facet normal 0 0 -1
    outer loop
      vertex -0.001 0.004 -0.5
      vertex 0.099 -0.012 -0.5
      vertex 0.086 -0.013 -0.5
    endloop
  endfacet
  facet normal 0 0 -1
    outer loop
      vertex 0.086 -0.013 -0.5
      vertex 0.074 -0.014 -0.5
      vertex -0.001 0.004 -0.5
    endloop
  endfacet
  facet normal 0 0 -1
    outer loop
      vertex 0.074 -0.014 -0.5
      vertex 0.063 -0.015 -0.5
      vertex -0.001 0.004 -0.5
    endloop
  endfacet
  facet normal 0 0 -1
    outer loop
      vertex -0.001 0.004 -0.5
      vertex 0.063 -0.015 -0.5
      vertex 0.034 -0.015 -0.5
    endloop
  endfacet
  facet normal 0 0 -1
    outer loop
      vertex -0.001 0.004 -0.5
      vertex 0.034 -0.015 -0.5
      vertex 0.027 -0.014 -0.5
    endloop
  endfacet
  facet normal 0 0 -1
    outer loop
      vertex -0.001 0.004 -0.5
      vertex 0.027 -0.014 -0.5
      vertex 0.02 -0.013 -0.5
    endloop
  endfacet
  facet normal 0 0 -1
    outer loop
      vertex -0.001 0.004 -0.5
      vertex 0.02 -0.013 -0.5
      vertex 0.014 -0.011 -0.5
    endloop
  endfacet
  facet normal 0 0 -1
    outer loop
      vertex -0.001 0.004 -0.5
      vertex 0.014 -0.011 -0.5
      vertex 0.009 -0.009 -0.5
    endloop
  endfacet
  facet normal 0 0 -1
    outer loop
      vertex -0.001 0.004 -0.5
      vertex 0.009 -0.009 -0.5
      vertex 0.005 -0.007 -0.5
    endloop
  endfacet
  facet normal 0 0 -1
    outer loop
      vertex -0.001 0.004 -0.5
      vertex 0.005 -0.007 -0.5
      vertex 0.002 -0.004 -0.5
    endloop
  endfacet
  facet normal 0 0 -1
    outer loop
      vertex -0.001 0.004 -0.5
      vertex 0.002 -0.004 -0.5
      vertex 0 0 -0.5
    endloop
  endfacet
  facet normal 0 0 -1
    outer loop
      vertex 0.967 0.003 -0.5
      vertex 1 0.001 -0.5
      vertex 1 -0.001 -0.5
    endloop
  endfacet
  facet normal -0.780869 0.624695 0
    outer loop
      vertex 0.006 0.023 0.5
      vertex 0.01 0.028 0.5
      vertex 0.006 0.023 -0.5
    endloop
  endfacet
  facet normal -0.780869 0.624695 0
    outer loop
      vertex 0.006 0.023 -0.5
      vertex 0.01 0.028 0.5
      vertex 0.01 0.028 -0.5
    endloop
  endfacet
  facet normal 0 0 1
    outer loop
      vertex -0.001 0.004 0.5
      vertex 0 0 0.5
      vertex 0.002 -0.004 0.5
    endloop
  endfacet
  facet normal 0 0 1
    outer loop
      vertex 0.009 -0.009 0.5
      vertex -0.001 0.004 0.5
      vertex 0.005 -0.007 0.5
    endloop
  endfacet
  facet normal 0 0 1
    outer loop
      vertex 0.005 -0.007 0.5
      vertex -0.001 0.004 0.5
      vertex 0.002 -0.004 0.5
    endloop
  endfacet
  facet normal 0 0 1
    outer loop
      vertex 0.014 -0.011 0.5
      vertex -0.001 0.004 0.5
      vertex 0.009 -0.009 0.5
    endloop
  endfacet
  facet normal 0 0 1
    outer loop
      vertex 0.02 -0.013 0.5
      vertex -0.001 0.004 0.5
      vertex 0.014 -0.011 0.5
    endloop
  endfacet
  facet normal 0 0 1
    outer loop
      vertex 0.027 -0.014 0.5
      vertex -0.001 0.004 0.5
      vertex 0.02 -0.013 0.5
    endloop
  endfacet
  facet normal 0 0 1
    outer loop
      vertex 0.034 -0.015 0.5
      vertex -0.001 0.004 0.5
      vertex 0.027 -0.014 0.5
    endloop
  endfacet
  facet normal 0 0 1
    outer loop
      vertex 0.063 -0.015 0.5
      vertex -0.001 0.004 0.5
      vertex 0.034 -0.015 0.5
    endloop
  endfacet
  facet normal 0 0 1
    outer loop
      vertex 0.074 -0.014 0.5
      vertex -0.001 0.004 0.5
      vertex 0.063 -0.015 0.5
    endloop
  endfacet
  facet normal 0 0 1
    outer loop
      vertex 0.086 -0.013 0.5
      vertex -0.001 0.004 0.5
      vertex 0.074 -0.014 0.5
    endloop
  endfacet
  facet normal 0 0 1
    outer loop
      vertex 0.099 -0.012 0.5
      vertex -0.001 0.004 0.5
      vertex 0.086 -0.013 0.5
    endloop
  endfacet
  facet normal 0 0 1
    outer loop
      vertex 0.127 -0.008 0.5
      vertex -0.001 0.004 0.5
      vertex 0.099 -0.012 0.5
    endloop
  endfacet
  facet normal 0 0 1
    outer loop
      vertex 0.142 -0.006 0.5
      vertex -0.001 0.004 0.5
      vertex 0.127 -0.008 0.5
    endloop
  endfacet
  facet normal 0 0 1
    outer loop
      vertex 0.158 -0.004 0.5
      vertex -0.001 0.004 0.5
      vertex 0.142 -0.006 0.5
    endloop
  endfacet
  facet normal 0 0 1
    outer loop
      vertex 0.175 -0.001 0.5
      vertex -0.001 0.004 0.5
      vertex 0.158 -0.004 0.5
    endloop
  endfacet
  facet normal 0 0 1
    outer loop
      vertex 0.192 0.001 0.5
      vertex -0.001 0.004 0.5
      vertex 0.175 -0.001 0.5
    endloop
  endfacet
  facet normal 0 0 1
    outer loop
      vertex 0.21 0.004 0.5
      vertex -0.001 0.004 0.5
      vertex 0.192 0.001 0.5
    endloop
  endfacet
  facet normal 0 0 1
    outer loop
      vertex 0.229 0.006 0.5
      vertex -0.001 0.004 0.5
      vertex 0.21 0.004 0.5
    endloop
  endfacet
  facet normal 0 0 1
    outer loop
      vertex 0.249 0.009 0.5
      vertex -0.001 0.004 0.5
      vertex 0.229 0.006 0.5
    endloop
  endfacet
  facet normal 0 0 1
    outer loop
      vertex 0.269 0.011 0.5
      vertex -0.001 0.004 0.5
      vertex 0.249 0.009 0.5
    endloop
  endfacet
  facet normal 0 0 1
    outer loop
      vertex 0.289 0.014 0.5
      vertex -0.001 0.004 0.5
      vertex 0.269 0.011 0.5
    endloop
  endfacet
  facet normal 0 0 1
    outer loop
      vertex 0.311 0.016 0.5
      vertex -0.001 0.004 0.5
      vertex 0.289 0.014 0.5
    endloop
  endfacet
  facet normal 0 0 1
    outer loop
      vertex 0.333 0.018 0.5
      vertex -0.001 0.004 0.5
      vertex 0.311 0.016 0.5
    endloop
  endfacet
  facet normal 0 0 1
    outer loop
      vertex 0.355 0.019 0.5
      vertex -0.001 0.004 0.5
      vertex 0.333 0.018 0.5
    endloop
  endfacet
  facet normal 0 0 1
    outer loop
      vertex 0.379 0.021 0.5
      vertex -0.001 0.004 0.5
      vertex 0.355 0.019 0.5
    endloop
  endfacet
  facet normal 0 0 1
    outer loop
      vertex 0.876 0.048 0.5
      vertex -0.001 0.004 0.5
      vertex 0.379 0.021 0.5
    endloop
  endfacet
  facet normal 0 0 1
    outer loop
      vertex 0.876 0.048 0.5
      vertex 0.379 0.021 0.5
      vertex 0.403 0.022 0.5
    endloop
  endfacet
  facet normal 0 0 1
    outer loop
      vertex 0.453 0.024 0.5
      vertex 0.403 0.022 0.5
      vertex 0.428 0.023 0.5
    endloop
  endfacet
  facet normal 0 0 1
    outer loop
      vertex 0.876 0.048 0.5
      vertex 0.403 0.022 0.5
      vertex 0.453 0.024 0.5
    endloop
  endfacet
  facet normal 0 0 1
    outer loop
      vertex 0.507 0.025 0.5
      vertex 0.453 0.024 0.5
      vertex 0.48 0.024 0.5
    endloop
  endfacet
  facet normal 0 0 1
    outer loop
      vertex 0.907 0.037 0.5
      vertex 0.453 0.024 0.5
      vertex 0.507 0.025 0.5
    endloop
  endfacet
  facet normal 0 0 1
    outer loop
      vertex 0.563 0.026 0.5
      vertex 0.507 0.025 0.5
      vertex 0.535 0.025 0.5
    endloop
  endfacet
  facet normal 0 0 1
    outer loop
      vertex 0.907 0.037 0.5
      vertex 0.507 0.025 0.5
      vertex 0.563 0.026 0.5
    endloop
  endfacet
  facet normal 0 0 1
    outer loop
      vertex 0.907 0.037 0.5
      vertex 0.563 0.026 0.5
      vertex 0.592 0.026 0.5
    endloop
  endfacet
  facet normal 0 0 1
    outer loop
      vertex 0.65 0.025 0.5
      vertex 0.592 0.026 0.5
      vertex 0.621 0.025 0.5
    endloop
  endfacet
  facet normal 0 0 1
    outer loop
      vertex 0.938 0.026 0.5
      vertex 0.592 0.026 0.5
      vertex 0.65 0.025 0.5
    endloop
  endfacet
  facet normal 0 0 1
    outer loop
      vertex 0.742 0.022 0.5
      vertex 0.65 0.025 0.5
      vertex 0.68 0.024 0.5
    endloop
  endfacet
  facet normal 0 0 1
    outer loop
      vertex 0.938 0.026 0.5
      vertex 0.65 0.025 0.5
      vertex 0.742 0.022 0.5
    endloop
  endfacet
  facet normal 0 0 1
    outer loop
      vertex 0.836 0.016 0.5
      vertex 0.742 0.022 0.5
      vertex 0.804 0.018 0.5
    endloop
  endfacet
  facet normal 0 0 1
    outer loop
      vertex 0.969 0.014 0.5
      vertex 0.742 0.022 0.5
      vertex 0.836 0.016 0.5
    endloop
  endfacet
  facet normal 0 0 1
    outer loop
      vertex 0.969 0.014 0.5
      vertex 0.836 0.016 0.5
      vertex 0.869 0.013 0.5
    endloop
  endfacet
  facet normal 0 0 1
    outer loop
      vertex 0.934 0.007 0.5
      vertex 0.869 0.013 0.5
      vertex 0.901 0.01 0.5
    endloop
  endfacet
  facet normal 0 0 1
    outer loop
      vertex 1 0.001 0.5
      vertex 0.869 0.013 0.5
      vertex 0.934 0.007 0.5
    endloop
  endfacet
  facet normal 0 0 1
    outer loop
      vertex 1 0.001 0.5
      vertex 0.934 0.007 0.5
      vertex 0.967 0.003 0.5
    endloop
  endfacet
  facet normal 0 0 1
    outer loop
      vertex 1 0.001 0.5
      vertex 0.967 0.003 0.5
      vertex 1 -0.001 0.5
    endloop
  endfacet
  facet normal 0 0 1
    outer loop
      vertex 0.969 0.014 0.5
      vertex 0.869 0.013 0.5
      vertex 1 0.001 0.5
    endloop
  endfacet
  facet normal 0 0 1
    outer loop
      vertex 0.938 0.026 0.5
      vertex 0.742 0.022 0.5
      vertex 0.969 0.014 0.5
    endloop
  endfacet
  facet normal 0 0 1
    outer loop
      vertex 0.907 0.037 0.5
      vertex 0.592 0.026 0.5
      vertex 0.938 0.026 0.5
    endloop
  endfacet
  facet normal 0 0 1
    outer loop
      vertex 0.876 0.048 0.5
      vertex 0.453 0.024 0.5
      vertex 0.907 0.037 0.5
    endloop
  endfacet
  facet normal 0 0 1
    outer loop
      vertex 0.844 0.058 0.5
      vertex -0.001 0.004 0.5
      vertex 0.876 0.048 0.5
    endloop
  endfacet
  facet normal 0 0 1
    outer loop
      vertex 0.813 0.068 0.5
      vertex -0.001 0.004 0.5
      vertex 0.844 0.058 0.5
    endloop
  endfacet
  facet normal 0 0 1
    outer loop
      vertex 0.782 0.077 0.5
      vertex -0.001 0.004 0.5
      vertex 0.813 0.068 0.5
    endloop
  endfacet
  facet normal 0 0 1
    outer loop
      vertex 0.751 0.085 0.5
      vertex -0.001 0.004 0.5
      vertex 0.782 0.077 0.5
    endloop
  endfacet
  facet normal 0 0 1
    outer loop
      vertex 0.72 0.093 0.5
      vertex -0.001 0.004 0.5
      vertex 0.751 0.085 0.5
    endloop
  endfacet
  facet normal 0 0 1
    outer loop
      vertex 0.689 0.1 0.5
      vertex -0.001 0.004 0.5
      vertex 0.72 0.093 0.5
    endloop
  endfacet
  facet normal 0 0 1
    outer loop
      vertex 0.659 0.106 0.5
      vertex -0.001 0.004 0.5
      vertex 0.689 0.1 0.5
    endloop
  endfacet
  facet normal 0 0 1
    outer loop
      vertex 0.629 0.112 0.5
      vertex -0.001 0.004 0.5
      vertex 0.659 0.106 0.5
    endloop
  endfacet
  facet normal 0 0 1
    outer loop
      vertex 0.569 0.122 0.5
      vertex -0.001 0.004 0.5
      vertex 0.629 0.112 0.5
    endloop
  endfacet
  facet normal 0 0 1
    outer loop
      vertex 0.54 0.126 0.5
      vertex -0.001 0.004 0.5
      vertex 0.569 0.122 0.5
    endloop
  endfacet
  facet normal 0 0 1
    outer loop
      vertex 0.512 0.13 0.5
      vertex -0.001 0.004 0.5
      vertex 0.54 0.126 0.5
    endloop
  endfacet
  facet normal 0 0 1
    outer loop
      vertex 0.483 0.133 0.5
      vertex -0.001 0.004 0.5
      vertex 0.512 0.13 0.5
    endloop
  endfacet
  facet normal 0 0 1
    outer loop
      vertex 0.455 0.135 0.5
      vertex -0.001 0.004 0.5
      vertex 0.483 0.133 0.5
    endloop
  endfacet
  facet normal 0 0 1
    outer loop
      vertex 0.428 0.137 0.5
      vertex -0.001 0.004 0.5
      vertex 0.455 0.135 0.5
    endloop
  endfacet
  facet normal 0 0 1
    outer loop
      vertex 0.401 0.138 0.5
      vertex -0.001 0.004 0.5
      vertex 0.428 0.137 0.5
    endloop
  endfacet
  facet normal 0 0 1
    outer loop
      vertex 0.374 0.139 0.5
      vertex -0.001 0.004 0.5
      vertex 0.401 0.138 0.5
    endloop
  endfacet
  facet normal 0 0 1
    outer loop
      vertex 0.348 0.138 0.5
      vertex -0.001 0.004 0.5
      vertex 0.374 0.139 0.5
    endloop
  endfacet
  facet normal 0 0 1
    outer loop
      vertex 0.323 0.137 0.5
      vertex -0.001 0.004 0.5
      vertex 0.348 0.138 0.5
    endloop
  endfacet
  facet normal 0 0 1
    outer loop
      vertex 0.298 0.135 0.5
      vertex -0.001 0.004 0.5
      vertex 0.323 0.137 0.5
    endloop
  endfacet
  facet normal 0 0 1
    outer loop
      vertex 0.274 0.132 0.5
      vertex -0.001 0.004 0.5
      vertex 0.298 0.135 0.5
    endloop
  endfacet
  facet normal 0 0 1
    outer loop
      vertex 0.251 0.129 0.5
      vertex -0.001 0.004 0.5
      vertex 0.274 0.132 0.5
    endloop
  endfacet
  facet normal 0 0 1
    outer loop
      vertex 0.207 0.121 0.5
      vertex -0.001 0.004 0.5
      vertex 0.251 0.129 0.5
    endloop
  endfacet
  facet normal 0 0 1
    outer loop
      vertex 0.187 0.116 0.5
      vertex -0.001 0.004 0.5
      vertex 0.207 0.121 0.5
    endloop
  endfacet
  facet normal 0 0 1
    outer loop
      vertex 0.167 0.11 0.5
      vertex -0.001 0.004 0.5
      vertex 0.187 0.116 0.5
    endloop
  endfacet
  facet normal 0 0 1
    outer loop
      vertex 0.149 0.105 0.5
      vertex -0.001 0.004 0.5
      vertex 0.167 0.11 0.5
    endloop
  endfacet
  facet normal 0 0 1
    outer loop
      vertex 0.131 0.099 0.5
      vertex -0.001 0.004 0.5
      vertex 0.149 0.105 0.5
    endloop
  endfacet
  facet normal 0 0 1
    outer loop
      vertex 0.115 0.092 0.5
      vertex -0.001 0.004 0.5
      vertex 0.131 0.099 0.5
    endloop
  endfacet
  facet normal 0 0 1
    outer loop
      vertex 0.1 0.086 0.5
      vertex -0.001 0.004 0.5
      vertex 0.115 0.092 0.5
    endloop
  endfacet
  facet normal 0 0 1
    outer loop
      vertex 0.085 0.079 0.5
      vertex -0.001 0.004 0.5
      vertex 0.1 0.086 0.5
    endloop
  endfacet
  facet normal 0 0 1
    outer loop
      vertex 0.072 0.073 0.5
      vertex -0.001 0.004 0.5
      vertex 0.085 0.079 0.5
    endloop
  endfacet
  facet normal 0 0 1
    outer loop
      vertex 0.06 0.066 0.5
      vertex -0.001 0.004 0.5
      vertex 0.072 0.073 0.5
    endloop
  endfacet
  facet normal 0 0 1
    outer loop
      vertex 0.049 0.059 0.5
      vertex -0.001 0.004 0.5
      vertex 0.06 0.066 0.5
    endloop
  endfacet
  facet normal 0 0 1
    outer loop
      vertex 0.039 0.053 0.5
      vertex -0.001 0.004 0.5
      vertex 0.049 0.059 0.5
    endloop
  endfacet
  facet normal 0 0 1
    outer loop
      vertex 0.03 0.046 0.5
      vertex -0.001 0.004 0.5
      vertex 0.039 0.053 0.5
    endloop
  endfacet
  facet normal 0 0 1
    outer loop
      vertex 0.022 0.04 0.5
      vertex -0.001 0.004 0.5
      vertex 0.03 0.046 0.5
    endloop
  endfacet
  facet normal 0 0 1
    outer loop
      vertex 0.016 0.034 0.5
      vertex -0.001 0.004 0.5
      vertex 0.022 0.04 0.5
    endloop
  endfacet
  facet normal 0 0 1
    outer loop
      vertex 0.01 0.028 0.5
      vertex -0.001 0.004 0.5
      vertex 0.016 0.034 0.5
    endloop
  endfacet
  facet normal 0 0 1
    outer loop
      vertex 0.006 0.023 0.5
      vertex -0.001 0.004 0.5
      vertex 0.01 0.028 0.5
    endloop
  endfacet
  facet normal 0 0 1
    outer loop
      vertex 0.003 0.018 0.5
      vertex -0.001 0.004 0.5
      vertex 0.006 0.023 0.5
    endloop
  endfacet
  facet normal 0 0 1
    outer loop
      vertex 0 0.013 0.5
      vertex -0.001 0.004 0.5
      vertex 0.003 0.018 0.5
    endloop
  endfacet
  facet normal 0 0 1
    outer loop
      vertex -0.001 0.008 0.5
      vertex -0.001 0.004 0.5
      vertex 0 0.013 0.5
    endloop
  endfacet
  facet normal -0.980581 0.196116 0
    outer loop
      vertex -0.001 0.008 0.5
      vertex 0 0.013 0.5
      vertex -0.001 0.008 -0.5
    endloop
  endfacet
  facet normal -0.980581 0.196116 0
    outer loop
      vertex -0.001 0.008 -0.5
      vertex 0 0.013 0.5
      vertex 0 0.013 -0.5
    endloop
  endfacet
  facet normal -0.970143 -0.242536 0
    outer loop
      vertex 0 0 -0.5
      vertex 0 0 0.5
      vertex -0.001 0.004 -0.5
    endloop
  endfacet
  facet normal -0.970143 -0.242536 0
    outer loop
      vertex -0.001 0.004 -0.5
      vertex 0 0 0.5
      vertex -0.001 0.004 0.5
    endloop
  endfacet
  facet normal -1 0 0
    outer loop
      vertex -0.001 0.004 0.5
      vertex -0.001 0.008 0.5
      vertex -0.001 0.004 -0.5
    endloop
  endfacet
  facet normal -1 0 0
    outer loop
      vertex -0.001 0.004 -0.5
      vertex -0.001 0.008 0.5
      vertex -0.001 0.008 -0.5
    endloop
  endfacet
  facet normal -0.894427 -0.447214 0
    outer loop
      vertex 0.002 -0.004 -0.5
      vertex 0.002 -0.004 0.5
      vertex 0 0 -0.5
    endloop
  endfacet
  facet normal -0.894427 -0.447214 0
    outer loop
      vertex 0 0 -0.5
      vertex 0.002 -0.004 0.5
      vertex 0 0 0.5
    endloop
  endfacet
  facet normal -0.707107 -0.707107 0
    outer loop
      vertex 0.002 -0.004 -0.5
      vertex 0.005 -0.007 -0.5
      vertex 0.005 -0.007 0.5
    endloop
  endfacet
  facet normal -0.707107 -0.707107 0
    outer loop
      vertex 0.002 -0.004 0.5
      vertex 0.002 -0.004 -0.5
      vertex 0.005 -0.007 0.5
    endloop
  endfacet
  facet normal -0.447214 -0.894427 0
    outer loop
      vertex 0.005 -0.007 -0.5
      vertex 0.009 -0.009 -0.5
      vertex 0.009 -0.009 0.5
    endloop
  endfacet
  facet normal -0.447214 -0.894427 0
    outer loop
      vertex 0.005 -0.007 0.5
      vertex 0.005 -0.007 -0.5
      vertex 0.009 -0.009 0.5
    endloop
  endfacet
  facet normal -0.371391 -0.928477 0
    outer loop
      vertex 0.009 -0.009 -0.5
      vertex 0.014 -0.011 -0.5
      vertex 0.014 -0.011 0.5
    endloop
  endfacet
  facet normal -0.371391 -0.928477 0
    outer loop
      vertex 0.009 -0.009 0.5
      vertex 0.009 -0.009 -0.5
      vertex 0.014 -0.011 0.5
    endloop
  endfacet
  facet normal -0.316228 -0.948683 0
    outer loop
      vertex 0.014 -0.011 -0.5
      vertex 0.02 -0.013 -0.5
      vertex 0.02 -0.013 0.5
    endloop
  endfacet
  facet normal -0.316228 -0.948683 0
    outer loop
      vertex 0.014 -0.011 0.5
      vertex 0.014 -0.011 -0.5
      vertex 0.02 -0.013 0.5
    endloop
  endfacet
  facet normal -0.141421 -0.989949 0
    outer loop
      vertex 0.02 -0.013 -0.5
      vertex 0.027 -0.014 -0.5
      vertex 0.027 -0.014 0.5
    endloop
  endfacet
  facet normal -0.141421 -0.989949 0
    outer loop
      vertex 0.02 -0.013 0.5
      vertex 0.02 -0.013 -0.5
      vertex 0.027 -0.014 0.5
    endloop
  endfacet
  facet normal -0.141421 -0.989949 0
    outer loop
      vertex 0.027 -0.014 -0.5
      vertex 0.034 -0.015 -0.5
      vertex 0.034 -0.015 0.5
    endloop
  endfacet
  facet normal -0.141421 -0.989949 0
    outer loop
      vertex 0.027 -0.014 0.5
      vertex 0.027 -0.014 -0.5
      vertex 0.034 -0.015 0.5
    endloop
  endfacet
  facet normal 0 -1 0
    outer loop
      vertex 0.034 -0.015 -0.5
      vertex 0.063 -0.015 -0.5
      vertex 0.063 -0.015 0.5
    endloop
  endfacet
  facet normal 0 -1 0
    outer loop
      vertex 0.034 -0.015 0.5
      vertex 0.034 -0.015 -0.5
      vertex 0.063 -0.015 0.5
    endloop
  endfacet
  facet normal 0.0905357 -0.995893 0
    outer loop
      vertex 0.063 -0.015 -0.5
      vertex 0.074 -0.014 -0.5
      vertex 0.074 -0.014 0.5
    endloop
  endfacet
  facet normal 0.0905357 -0.995893 0
    outer loop
      vertex 0.063 -0.015 0.5
      vertex 0.063 -0.015 -0.5
      vertex 0.074 -0.014 0.5
    endloop
  endfacet
  facet normal 0.0830455 -0.996546 0
    outer loop
      vertex 0.074 -0.014 -0.5
      vertex 0.086 -0.013 -0.5
      vertex 0.086 -0.013 0.5
    endloop
  endfacet
  facet normal 0.0830455 -0.996546 0
    outer loop
      vertex 0.074 -0.014 0.5
      vertex 0.074 -0.014 -0.5
      vertex 0.086 -0.013 0.5
    endloop
  endfacet
  facet normal 0.0766965 -0.997054 0
    outer loop
      vertex 0.086 -0.013 -0.5
      vertex 0.099 -0.012 -0.5
      vertex 0.099 -0.012 0.5
    endloop
  endfacet
  facet normal 0.0766965 -0.997054 0
    outer loop
      vertex 0.086 -0.013 0.5
      vertex 0.086 -0.013 -0.5
      vertex 0.099 -0.012 0.5
    endloop
  endfacet
  facet normal 0.141421 -0.989949 0
    outer loop
      vertex 0.099 -0.012 -0.5
      vertex 0.127 -0.008 -0.5
      vertex 0.127 -0.008 0.5
    endloop
  endfacet
  facet normal 0.141421 -0.989949 0
    outer loop
      vertex 0.099 -0.012 0.5
      vertex 0.099 -0.012 -0.5
      vertex 0.127 -0.008 0.5
    endloop
  endfacet
  facet normal 0.132164 -0.991228 0
    outer loop
      vertex 0.127 -0.008 -0.5
      vertex 0.142 -0.006 -0.5
      vertex 0.142 -0.006 0.5
    endloop
  endfacet
  facet normal 0.132164 -0.991228 0
    outer loop
      vertex 0.127 -0.008 0.5
      vertex 0.127 -0.008 -0.5
      vertex 0.142 -0.006 0.5
    endloop
  endfacet
  facet normal 0.124035 -0.992278 0
    outer loop
      vertex 0.142 -0.006 -0.5
      vertex 0.158 -0.004 -0.5
      vertex 0.158 -0.004 0.5
    endloop
  endfacet
  facet normal 0.124035 -0.992278 0
    outer loop
      vertex 0.142 -0.006 0.5
      vertex 0.142 -0.006 -0.5
      vertex 0.158 -0.004 0.5
    endloop
  endfacet
  facet normal 0.173785 -0.984784 0
    outer loop
      vertex 0.158 -0.004 -0.5
      vertex 0.175 -0.001 -0.5
      vertex 0.175 -0.001 0.5
    endloop
  endfacet
  facet normal 0.173785 -0.984784 0
    outer loop
      vertex 0.158 -0.004 0.5
      vertex 0.158 -0.004 -0.5
      vertex 0.175 -0.001 0.5
    endloop
  endfacet
  facet normal 0.116841 -0.993151 0
    outer loop
      vertex 0.175 -0.001 -0.5
      vertex 0.192 0.001 -0.5
      vertex 0.192 0.001 0.5
    endloop
  endfacet
  facet normal 0.116841 -0.993151 0
    outer loop
      vertex 0.175 -0.001 0.5
      vertex 0.175 -0.001 -0.5
      vertex 0.192 0.001 0.5
    endloop
  endfacet
  facet normal 0.164399 -0.986394 0
    outer loop
      vertex 0.192 0.001 -0.5
      vertex 0.21 0.004 -0.5
      vertex 0.21 0.004 0.5
    endloop
  endfacet
  facet normal 0.164399 -0.986394 0
    outer loop
      vertex 0.192 0.001 0.5
      vertex 0.192 0.001 -0.5
      vertex 0.21 0.004 0.5
    endloop
  endfacet
  facet normal 0.104685 -0.994505 0
    outer loop
      vertex 0.21 0.004 -0.5
      vertex 0.229 0.006 -0.5
      vertex 0.229 0.006 0.5
    endloop
  endfacet
  facet normal 0.104685 -0.994505 0
    outer loop
      vertex 0.21 0.004 0.5
      vertex 0.21 0.004 -0.5
      vertex 0.229 0.006 0.5
    endloop
  endfacet
  facet normal 0.14834 -0.988936 0
    outer loop
      vertex 0.229 0.006 -0.5
      vertex 0.249 0.009 -0.5
      vertex 0.249 0.009 0.5
    endloop
  endfacet
  facet normal 0.14834 -0.988936 0
    outer loop
      vertex 0.229 0.006 0.5
      vertex 0.229 0.006 -0.5
      vertex 0.249 0.009 0.5
    endloop
  endfacet
  facet normal 0.0995037 -0.995037 0
    outer loop
      vertex 0.249 0.009 -0.5
      vertex 0.269 0.011 -0.5
      vertex 0.269 0.011 0.5
    endloop
  endfacet
  facet normal 0.0995037 -0.995037 0
    outer loop
      vertex 0.249 0.009 0.5
      vertex 0.249 0.009 -0.5
      vertex 0.269 0.011 0.5
    endloop
  endfacet
  facet normal 0.14834 -0.988936 0
    outer loop
      vertex 0.269 0.011 -0.5
      vertex 0.289 0.014 -0.5
      vertex 0.289 0.014 0.5
    endloop
  endfacet
  facet normal 0.14834 -0.988936 0
    outer loop
      vertex 0.269 0.011 0.5
      vertex 0.269 0.011 -0.5
      vertex 0.289 0.014 0.5
    endloop
  endfacet
  facet normal 0.0905357 -0.995893 0
    outer loop
      vertex 0.289 0.014 -0.5
      vertex 0.311 0.016 -0.5
      vertex 0.311 0.016 0.5
    endloop
  endfacet
  facet normal 0.0905357 -0.995893 0
    outer loop
      vertex 0.289 0.014 0.5
      vertex 0.289 0.014 -0.5
      vertex 0.311 0.016 0.5
    endloop
  endfacet
  facet normal 0.0905357 -0.995893 0
    outer loop
      vertex 0.311 0.016 -0.5
      vertex 0.333 0.018 -0.5
      vertex 0.333 0.018 0.5
    endloop
  endfacet
  facet normal 0.0905357 -0.995893 0
    outer loop
      vertex 0.311 0.016 0.5
      vertex 0.311 0.016 -0.5
      vertex 0.333 0.018 0.5
    endloop
  endfacet
  facet normal 0.0454077 -0.998969 0
    outer loop
      vertex 0.333 0.018 -0.5
      vertex 0.355 0.019 -0.5
      vertex 0.355 0.019 0.5
    endloop
  endfacet
  facet normal 0.0454077 -0.998969 0
    outer loop
      vertex 0.333 0.018 0.5
      vertex 0.333 0.018 -0.5
      vertex 0.355 0.019 0.5
    endloop
  endfacet
  facet normal 0.0830455 -0.996546 0
    outer loop
      vertex 0.355 0.019 -0.5
      vertex 0.379 0.021 -0.5
      vertex 0.379 0.021 0.5
    endloop
  endfacet
  facet normal 0.0830455 -0.996546 0
    outer loop
      vertex 0.355 0.019 0.5
      vertex 0.355 0.019 -0.5
      vertex 0.379 0.021 0.5
    endloop
  endfacet
  facet normal 0.0416305 -0.999133 0
    outer loop
      vertex 0.379 0.021 -0.5
      vertex 0.403 0.022 -0.5
      vertex 0.403 0.022 0.5
    endloop
  endfacet
  facet normal 0.0416305 -0.999133 0
    outer loop
      vertex 0.379 0.021 0.5
      vertex 0.379 0.021 -0.5
      vertex 0.403 0.022 0.5
    endloop
  endfacet
  facet normal 0.039968 -0.999201 0
    outer loop
      vertex 0.403 0.022 -0.5
      vertex 0.428 0.023 -0.5
      vertex 0.428 0.023 0.5
    endloop
  endfacet
  facet normal 0.039968 -0.999201 0
    outer loop
      vertex 0.403 0.022 0.5
      vertex 0.403 0.022 -0.5
      vertex 0.428 0.023 0.5
    endloop
  endfacet
  facet normal 0.039968 -0.999201 0
    outer loop
      vertex 0.428 0.023 -0.5
      vertex 0.453 0.024 -0.5
      vertex 0.453 0.024 0.5
    endloop
  endfacet
  facet normal 0.039968 -0.999201 0
    outer loop
      vertex 0.428 0.023 0.5
      vertex 0.428 0.023 -0.5
      vertex 0.453 0.024 0.5
    endloop
  endfacet
  facet normal 0 -1 0
    outer loop
      vertex 0.453 0.024 -0.5
      vertex 0.48 0.024 -0.5
      vertex 0.48 0.024 0.5
    endloop
  endfacet
  facet normal 0 -1 0
    outer loop
      vertex 0.453 0.024 0.5
      vertex 0.453 0.024 -0.5
      vertex 0.48 0.024 0.5
    endloop
  endfacet
  facet normal 0.0370117 -0.999315 0
    outer loop
      vertex 0.48 0.024 -0.5
      vertex 0.507 0.025 -0.5
      vertex 0.507 0.025 0.5
    endloop
  endfacet
  facet normal 0.0370117 -0.999315 0
    outer loop
      vertex 0.48 0.024 0.5
      vertex 0.48 0.024 -0.5
      vertex 0.507 0.025 0.5
    endloop
  endfacet
  facet normal 0 -1 0
    outer loop
      vertex 0.507 0.025 -0.5
      vertex 0.535 0.025 -0.5
      vertex 0.535 0.025 0.5
    endloop
  endfacet
  facet normal 0 -1 0
    outer loop
      vertex 0.507 0.025 0.5
      vertex 0.507 0.025 -0.5
      vertex 0.535 0.025 0.5
    endloop
  endfacet
  facet normal 0.0356915 -0.999363 0
    outer loop
      vertex 0.535 0.025 -0.5
      vertex 0.563 0.026 -0.5
      vertex 0.563 0.026 0.5
    endloop
  endfacet
  facet normal 0.0356915 -0.999363 0
    outer loop
      vertex 0.535 0.025 0.5
      vertex 0.535 0.025 -0.5
      vertex 0.563 0.026 0.5
    endloop
  endfacet
  facet normal 0 -1 0
    outer loop
      vertex 0.563 0.026 -0.5
      vertex 0.592 0.026 -0.5
      vertex 0.592 0.026 0.5
    endloop
  endfacet
  facet normal 0 -1 0
    outer loop
      vertex 0.563 0.026 0.5
      vertex 0.563 0.026 -0.5
      vertex 0.592 0.026 0.5
    endloop
  endfacet
  facet normal -0.0344623 -0.999406 0
    outer loop
      vertex 0.592 0.026 -0.5
      vertex 0.621 0.025 -0.5
      vertex 0.621 0.025 0.5
    endloop
  endfacet
  facet normal -0.0344623 -0.999406 0
    outer loop
      vertex 0.592 0.026 0.5
      vertex 0.592 0.026 -0.5
      vertex 0.621 0.025 0.5
    endloop
  endfacet
  facet normal 0 -1 0
    outer loop
      vertex 0.621 0.025 -0.5
      vertex 0.65 0.025 -0.5
      vertex 0.65 0.025 0.5
    endloop
  endfacet
  facet normal 0 -1 0
    outer loop
      vertex 0.621 0.025 0.5
      vertex 0.621 0.025 -0.5
      vertex 0.65 0.025 0.5
    endloop
  endfacet
  facet normal -0.0333148 -0.999445 0
    outer loop
      vertex 0.65 0.025 -0.5
      vertex 0.68 0.024 -0.5
      vertex 0.68 0.024 0.5
    endloop
  endfacet
  facet normal -0.0333148 -0.999445 0
    outer loop
      vertex 0.65 0.025 0.5
      vertex 0.65 0.025 -0.5
      vertex 0.68 0.024 0.5
    endloop
  endfacet
  facet normal -0.0322413 -0.99948 0
    outer loop
      vertex 0.68 0.024 -0.5
      vertex 0.742 0.022 -0.5
      vertex 0.742 0.022 0.5
    endloop
  endfacet
  facet normal -0.0322413 -0.99948 0
    outer loop
      vertex 0.68 0.024 0.5
      vertex 0.68 0.024 -0.5
      vertex 0.742 0.022 0.5
    endloop
  endfacet
  facet normal -0.0643823 -0.997925 0
    outer loop
      vertex 0.742 0.022 -0.5
      vertex 0.804 0.018 -0.5
      vertex 0.804 0.018 0.5
    endloop
  endfacet
  facet normal -0.0643823 -0.997925 0
    outer loop
      vertex 0.742 0.022 0.5
      vertex 0.742 0.022 -0.5
      vertex 0.804 0.018 0.5
    endloop
  endfacet
  facet normal -0.0623783 -0.998053 0
    outer loop
      vertex 0.804 0.018 -0.5
      vertex 0.836 0.016 -0.5
      vertex 0.836 0.016 0.5
    endloop
  endfacet
  facet normal -0.0623783 -0.998053 0
    outer loop
      vertex 0.804 0.018 0.5
      vertex 0.804 0.018 -0.5
      vertex 0.836 0.016 0.5
    endloop
  endfacet
  facet normal -0.0905357 -0.995893 0
    outer loop
      vertex 0.836 0.016 -0.5
      vertex 0.869 0.013 -0.5
      vertex 0.869 0.013 0.5
    endloop
  endfacet
  facet normal -0.0905357 -0.995893 0
    outer loop
      vertex 0.836 0.016 0.5
      vertex 0.836 0.016 -0.5
      vertex 0.869 0.013 0.5
    endloop
  endfacet
  facet normal -0.0933407 -0.995634 0
    outer loop
      vertex 0.869 0.013 -0.5
      vertex 0.901 0.01 -0.5
      vertex 0.901 0.01 0.5
    endloop
  endfacet
  facet normal -0.0933407 -0.995634 0
    outer loop
      vertex 0.869 0.013 0.5
      vertex 0.869 0.013 -0.5
      vertex 0.901 0.01 0.5
    endloop
  endfacet
  facet normal -0.0905357 -0.995893 0
    outer loop
      vertex 0.901 0.01 -0.5
      vertex 0.934 0.007 -0.5
      vertex 0.934 0.007 0.5
    endloop
  endfacet
  facet normal -0.0905357 -0.995893 0
    outer loop
      vertex 0.901 0.01 0.5
      vertex 0.901 0.01 -0.5
      vertex 0.934 0.007 0.5
    endloop
  endfacet
  facet normal -0.120331 -0.992734 0
    outer loop
      vertex 0.934 0.007 -0.5
      vertex 0.967 0.003 -0.5
      vertex 0.967 0.003 0.5
    endloop
  endfacet
  facet normal -0.120331 -0.992734 0
    outer loop
      vertex 0.934 0.007 0.5
      vertex 0.934 0.007 -0.5
      vertex 0.967 0.003 0.5
    endloop
  endfacet
  facet normal -0.120331 -0.992734 0
    outer loop
      vertex 0.967 0.003 -0.5
      vertex 1 -0.001 -0.5
      vertex 1 -0.001 0.5
    endloop
  endfacet
  facet normal -0.120331 -0.992734 0
    outer loop
      vertex 0.967 0.003 0.5
      vertex 0.967 0.003 -0.5
      vertex 1 -0.001 0.5
    endloop
  endfacet
  facet normal 1 0 0
    outer loop
      vertex 1 -0.001 -0.5
      vertex 1 0.001 -0.5
      vertex 1 0.001 0.5
    endloop
  endfacet
  facet normal 1 0 0
    outer loop
      vertex 1 -0.001 0.5
      vertex 1 -0.001 -0.5
      vertex 1 0.001 0.5
    endloop
  endfacet
  facet normal 0.386727 0.922194 0
    outer loop
      vertex 0.969 0.014 0.5
      vertex 1 0.001 0.5
      vertex 0.969 0.014 -0.5
    endloop
  endfacet
  facet normal 0.386727 0.922194 0
    outer loop
      vertex 0.969 0.014 -0.5
      vertex 1 0.001 0.5
      vertex 1 0.001 -0.5
    endloop
  endfacet
  facet normal 0.360994 0.932568 0
    outer loop
      vertex 0.938 0.026 0.5
      vertex 0.969 0.014 0.5
      vertex 0.938 0.026 -0.5
    endloop
  endfacet
  facet normal 0.360994 0.932568 0
    outer loop
      vertex 0.938 0.026 -0.5
      vertex 0.969 0.014 0.5
      vertex 0.969 0.014 -0.5
    endloop
  endfacet
  facet normal 0.33441 0.942428 0
    outer loop
      vertex 0.907 0.037 0.5
      vertex 0.938 0.026 0.5
      vertex 0.907 0.037 -0.5
    endloop
  endfacet
  facet normal 0.33441 0.942428 0
    outer loop
      vertex 0.907 0.037 -0.5
      vertex 0.938 0.026 0.5
      vertex 0.938 0.026 -0.5
    endloop
  endfacet
  facet normal 0.33441 0.942428 0
    outer loop
      vertex 0.876 0.048 0.5
      vertex 0.907 0.037 0.5
      vertex 0.876 0.048 -0.5
    endloop
  endfacet
  facet normal 0.33441 0.942428 0
    outer loop
      vertex 0.876 0.048 -0.5
      vertex 0.907 0.037 0.5
      vertex 0.907 0.037 -0.5
    endloop
  endfacet
  facet normal 0.298275 0.95448 0
    outer loop
      vertex 0.844 0.058 0.5
      vertex 0.876 0.048 0.5
      vertex 0.844 0.058 -0.5
    endloop
  endfacet
  facet normal 0.298275 0.95448 0
    outer loop
      vertex 0.844 0.058 -0.5
      vertex 0.876 0.048 0.5
      vertex 0.876 0.048 -0.5
    endloop
  endfacet
  facet normal 0.307003 0.951709 0
    outer loop
      vertex 0.813 0.068 0.5
      vertex 0.844 0.058 0.5
      vertex 0.813 0.068 -0.5
    endloop
  endfacet
  facet normal 0.307003 0.951709 0
    outer loop
      vertex 0.813 0.068 -0.5
      vertex 0.844 0.058 0.5
      vertex 0.844 0.058 -0.5
    endloop
  endfacet
  facet normal 0.27881 0.960346 0
    outer loop
      vertex 0.782 0.077 0.5
      vertex 0.813 0.068 0.5
      vertex 0.782 0.077 -0.5
    endloop
  endfacet
  facet normal 0.27881 0.960346 0
    outer loop
      vertex 0.782 0.077 -0.5
      vertex 0.813 0.068 0.5
      vertex 0.813 0.068 -0.5
    endloop
  endfacet
  facet normal 0.249878 0.968277 0
    outer loop
      vertex 0.751 0.085 0.5
      vertex 0.782 0.077 0.5
      vertex 0.751 0.085 -0.5
    endloop
  endfacet
  facet normal 0.249878 0.968277 0
    outer loop
      vertex 0.751 0.085 -0.5
      vertex 0.782 0.077 0.5
      vertex 0.782 0.077 -0.5
    endloop
  endfacet
  facet normal 0.249878 0.968277 0
    outer loop
      vertex 0.72 0.093 0.5
      vertex 0.751 0.085 0.5
      vertex 0.72 0.093 -0.5
    endloop
  endfacet
  facet normal 0.249878 0.968277 0
    outer loop
      vertex 0.72 0.093 -0.5
      vertex 0.751 0.085 0.5
      vertex 0.751 0.085 -0.5
    endloop
  endfacet
  facet normal 0.220261 0.975441 0
    outer loop
      vertex 0.689 0.1 0.5
      vertex 0.72 0.093 0.5
      vertex 0.689 0.1 -0.5
    endloop
  endfacet
  facet normal 0.220261 0.975441 0
    outer loop
      vertex 0.689 0.1 -0.5
      vertex 0.72 0.093 0.5
      vertex 0.72 0.093 -0.5
    endloop
  endfacet
  facet normal 0.196116 0.980581 0
    outer loop
      vertex 0.659 0.106 0.5
      vertex 0.689 0.1 0.5
      vertex 0.659 0.106 -0.5
    endloop
  endfacet
  facet normal 0.196116 0.980581 0
    outer loop
      vertex 0.659 0.106 -0.5
      vertex 0.689 0.1 0.5
      vertex 0.689 0.1 -0.5
    endloop
  endfacet
  facet normal 0.196116 0.980581 0
    outer loop
      vertex 0.629 0.112 0.5
      vertex 0.659 0.106 0.5
      vertex 0.629 0.112 -0.5
    endloop
  endfacet
  facet normal 0.196116 0.980581 0
    outer loop
      vertex 0.629 0.112 -0.5
      vertex 0.659 0.106 0.5
      vertex 0.659 0.106 -0.5
    endloop
  endfacet
  facet normal 0.164399 0.986394 0
    outer loop
      vertex 0.569 0.122 0.5
      vertex 0.629 0.112 0.5
      vertex 0.569 0.122 -0.5
    endloop
  endfacet
  facet normal 0.164399 0.986394 0
    outer loop
      vertex 0.569 0.122 -0.5
      vertex 0.629 0.112 0.5
      vertex 0.629 0.112 -0.5
    endloop
  endfacet
  facet normal 0.136637 0.990621 0
    outer loop
      vertex 0.54 0.126 0.5
      vertex 0.569 0.122 0.5
      vertex 0.54 0.126 -0.5
    endloop
  endfacet
  facet normal 0.136637 0.990621 0
    outer loop
      vertex 0.54 0.126 -0.5
      vertex 0.569 0.122 0.5
      vertex 0.569 0.122 -0.5
    endloop
  endfacet
  facet normal 0.141421 0.989949 0
    outer loop
      vertex 0.512 0.13 0.5
      vertex 0.54 0.126 0.5
      vertex 0.512 0.13 -0.5
    endloop
  endfacet
  facet normal 0.141421 0.989949 0
    outer loop
      vertex 0.512 0.13 -0.5
      vertex 0.54 0.126 0.5
      vertex 0.54 0.126 -0.5
    endloop
  endfacet
  facet normal 0.102899 0.994692 0
    outer loop
      vertex 0.483 0.133 0.5
      vertex 0.512 0.13 0.5
      vertex 0.483 0.133 -0.5
    endloop
  endfacet
  facet normal 0.102899 0.994692 0
    outer loop
      vertex 0.483 0.133 -0.5
      vertex 0.512 0.13 0.5
      vertex 0.512 0.13 -0.5
    endloop
  endfacet
  facet normal 0.071247 0.997459 0
    outer loop
      vertex 0.455 0.135 0.5
      vertex 0.483 0.133 0.5
      vertex 0.455 0.135 -0.5
    endloop
  endfacet
  facet normal 0.071247 0.997459 0
    outer loop
      vertex 0.455 0.135 -0.5
      vertex 0.483 0.133 0.5
      vertex 0.483 0.133 -0.5
    endloop
  endfacet
  facet normal 0.0738717 0.997268 0
    outer loop
      vertex 0.428 0.137 0.5
      vertex 0.455 0.135 0.5
      vertex 0.428 0.137 -0.5
    endloop
  endfacet
  facet normal 0.0738717 0.997268 0
    outer loop
      vertex 0.428 0.137 -0.5
      vertex 0.455 0.135 0.5
      vertex 0.455 0.135 -0.5
    endloop
  endfacet
  facet normal 0.0370117 0.999315 0
    outer loop
      vertex 0.401 0.138 0.5
      vertex 0.428 0.137 0.5
      vertex 0.401 0.138 -0.5
    endloop
  endfacet
  facet normal 0.0370117 0.999315 0
    outer loop
      vertex 0.401 0.138 -0.5
      vertex 0.428 0.137 0.5
      vertex 0.428 0.137 -0.5
    endloop
  endfacet
  facet normal 0.0370117 0.999315 0
    outer loop
      vertex 0.374 0.139 0.5
      vertex 0.401 0.138 0.5
      vertex 0.374 0.139 -0.5
    endloop
  endfacet
  facet normal 0.0370117 0.999315 0
    outer loop
      vertex 0.374 0.139 -0.5
      vertex 0.401 0.138 0.5
      vertex 0.401 0.138 -0.5
    endloop
  endfacet
  facet normal -0.0384331 0.999261 0
    outer loop
      vertex 0.348 0.138 0.5
      vertex 0.374 0.139 0.5
      vertex 0.348 0.138 -0.5
    endloop
  endfacet
  facet normal -0.0384331 0.999261 0
    outer loop
      vertex 0.348 0.138 -0.5
      vertex 0.374 0.139 0.5
      vertex 0.374 0.139 -0.5
    endloop
  endfacet
  facet normal -0.039968 0.999201 0
    outer loop
      vertex 0.323 0.137 0.5
      vertex 0.348 0.138 0.5
      vertex 0.323 0.137 -0.5
    endloop
  endfacet
  facet normal -0.039968 0.999201 0
    outer loop
      vertex 0.323 0.137 -0.5
      vertex 0.348 0.138 0.5
      vertex 0.348 0.138 -0.5
    endloop
  endfacet
  facet normal -0.0797452 0.996815 0
    outer loop
      vertex 0.298 0.135 0.5
      vertex 0.323 0.137 0.5
      vertex 0.298 0.135 -0.5
    endloop
  endfacet
  facet normal -0.0797452 0.996815 0
    outer loop
      vertex 0.298 0.135 -0.5
      vertex 0.323 0.137 0.5
      vertex 0.323 0.137 -0.5
    endloop
  endfacet
  facet normal -0.124035 0.992278 0
    outer loop
      vertex 0.274 0.132 0.5
      vertex 0.298 0.135 0.5
      vertex 0.274 0.132 -0.5
    endloop
  endfacet
  facet normal -0.124035 0.992278 0
    outer loop
      vertex 0.274 0.132 -0.5
      vertex 0.298 0.135 0.5
      vertex 0.298 0.135 -0.5
    endloop
  endfacet
  facet normal -0.129339 0.9916 0
    outer loop
      vertex 0.251 0.129 0.5
      vertex 0.274 0.132 0.5
      vertex 0.251 0.129 -0.5
    endloop
  endfacet
  facet normal -0.129339 0.9916 0
    outer loop
      vertex 0.251 0.129 -0.5
      vertex 0.274 0.132 0.5
      vertex 0.274 0.132 -0.5
    endloop
  endfacet
  facet normal -0.178885 0.98387 0
    outer loop
      vertex 0.207 0.121 0.5
      vertex 0.251 0.129 0.5
      vertex 0.207 0.121 -0.5
    endloop
  endfacet
  facet normal -0.178885 0.98387 0
    outer loop
      vertex 0.207 0.121 -0.5
      vertex 0.251 0.129 0.5
      vertex 0.251 0.129 -0.5
    endloop
  endfacet
  facet normal -0.242536 0.970143 0
    outer loop
      vertex 0.187 0.116 0.5
      vertex 0.207 0.121 0.5
      vertex 0.187 0.116 -0.5
    endloop
  endfacet
  facet normal -0.242536 0.970143 0
    outer loop
      vertex 0.187 0.116 -0.5
      vertex 0.207 0.121 0.5
      vertex 0.207 0.121 -0.5
    endloop
  endfacet
  facet normal -0.287348 0.957826 0
    outer loop
      vertex 0.167 0.11 0.5
      vertex 0.187 0.116 0.5
      vertex 0.167 0.11 -0.5
    endloop
  endfacet
  facet normal -0.287348 0.957826 0
    outer loop
      vertex 0.167 0.11 -0.5
      vertex 0.187 0.116 0.5
      vertex 0.187 0.116 -0.5
    endloop
  endfacet
  facet normal -0.267644 0.963518 0
    outer loop
      vertex 0.149 0.105 0.5
      vertex 0.167 0.11 0.5
      vertex 0.149 0.105 -0.5
    endloop
  endfacet
  facet normal -0.267644 0.963518 0
    outer loop
      vertex 0.149 0.105 -0.5
      vertex 0.167 0.11 0.5
      vertex 0.167 0.11 -0.5
    endloop
  endfacet
  facet normal -0.316228 0.948683 0
    outer loop
      vertex 0.131 0.099 0.5
      vertex 0.149 0.105 0.5
      vertex 0.131 0.099 -0.5
    endloop
  endfacet
  facet normal -0.316228 0.948683 0
    outer loop
      vertex 0.131 0.099 -0.5
      vertex 0.149 0.105 0.5
      vertex 0.149 0.105 -0.5
    endloop
  endfacet
  facet normal -0.400819 0.916157 0
    outer loop
      vertex 0.115 0.092 0.5
      vertex 0.131 0.099 0.5
      vertex 0.115 0.092 -0.5
    endloop
  endfacet
  facet normal -0.400819 0.916157 0
    outer loop
      vertex 0.115 0.092 -0.5
      vertex 0.131 0.099 0.5
      vertex 0.131 0.099 -0.5
    endloop
  endfacet
  facet normal -0.371391 0.928477 0
    outer loop
      vertex 0.1 0.086 0.5
      vertex 0.115 0.092 0.5
      vertex 0.1 0.086 -0.5
    endloop
  endfacet
  facet normal -0.371391 0.928477 0
    outer loop
      vertex 0.1 0.086 -0.5
      vertex 0.115 0.092 0.5
      vertex 0.115 0.092 -0.5
    endloop
  endfacet
  facet normal -0.422885 0.906183 0
    outer loop
      vertex 0.085 0.079 0.5
      vertex 0.1 0.086 0.5
      vertex 0.085 0.079 -0.5
    endloop
  endfacet
  facet normal -0.422885 0.906183 0
    outer loop
      vertex 0.085 0.079 -0.5
      vertex 0.1 0.086 0.5
      vertex 0.1 0.086 -0.5
    endloop
  endfacet
  facet normal -0.419058 0.907959 0
    outer loop
      vertex 0.072 0.073 0.5
      vertex 0.085 0.079 0.5
      vertex 0.072 0.073 -0.5
    endloop
  endfacet
  facet normal -0.419058 0.907959 0
    outer loop
      vertex 0.072 0.073 -0.5
      vertex 0.085 0.079 0.5
      vertex 0.085 0.079 -0.5
    endloop
  endfacet
  facet normal -0.503871 0.863779 0
    outer loop
      vertex 0.06 0.066 0.5
      vertex 0.072 0.073 0.5
      vertex 0.06 0.066 -0.5
    endloop
  endfacet
  facet normal -0.503871 0.863779 0
    outer loop
      vertex 0.06 0.066 -0.5
      vertex 0.072 0.073 0.5
      vertex 0.072 0.073 -0.5
    endloop
  endfacet
  facet normal -0.536875 0.843661 0
    outer loop
      vertex 0.049 0.059 0.5
      vertex 0.06 0.066 0.5
      vertex 0.049 0.059 -0.5
    endloop
  endfacet
  facet normal -0.536875 0.843661 0
    outer loop
      vertex 0.049 0.059 -0.5
      vertex 0.06 0.066 0.5
      vertex 0.06 0.066 -0.5
    endloop
  endfacet
  facet normal -0.514496 0.857493 0
    outer loop
      vertex 0.039 0.053 0.5
      vertex 0.049 0.059 0.5
      vertex 0.039 0.053 -0.5
    endloop
  endfacet
  facet normal -0.514496 0.857493 0
    outer loop
      vertex 0.039 0.053 -0.5
      vertex 0.049 0.059 0.5
      vertex 0.049 0.059 -0.5
    endloop
  endfacet
  facet normal -0.613941 0.789352 0
    outer loop
      vertex 0.03 0.046 0.5
      vertex 0.039 0.053 0.5
      vertex 0.03 0.046 -0.5
    endloop
  endfacet
  facet normal -0.613941 0.789352 0
    outer loop
      vertex 0.03 0.046 -0.5
      vertex 0.039 0.053 0.5
      vertex 0.039 0.053 -0.5
    endloop
  endfacet
  facet normal -0.6 0.8 0
    outer loop
      vertex 0.022 0.04 0.5
      vertex 0.03 0.046 0.5
      vertex 0.022 0.04 -0.5
    endloop
  endfacet
  facet normal -0.6 0.8 0
    outer loop
      vertex 0.022 0.04 -0.5
      vertex 0.03 0.046 0.5
      vertex 0.03 0.046 -0.5
    endloop
  endfacet
  facet normal -0.707107 0.707107 0
    outer loop
      vertex 0.016 0.034 0.5
      vertex 0.022 0.04 0.5
      vertex 0.016 0.034 -0.5
    endloop
  endfacet
  facet normal -0.707107 0.707107 0
    outer loop
      vertex 0.016 0.034 -0.5
      vertex 0.022 0.04 0.5
      vertex 0.022 0.04 -0.5
    endloop
  endfacet
  facet normal -0.707107 0.707107 0
    outer loop
      vertex 0.01 0.028 0.5
      vertex 0.016 0.034 0.5
      vertex 0.01 0.028 -0.5
    endloop
  endfacet
  facet normal -0.707107 0.707107 0
    outer loop
      vertex 0.01 0.028 -0.5
      vertex 0.016 0.034 0.5
      vertex 0.016 0.034 -0.5
    endloop
  endfacet
endsolid OpenSCAD_Model
